HIERARCHY
ROOT ui
{
	 OFFSET 0 0 0
	 CHANNELS 3 XPosition YPosition Z Position
	 EndSite
	 {
	 OFFSET 0 -1 0
	 }
}
ROOT li
{
	 OFFSET 0 0 0
	 CHANNELS 3 XPosition YPosition Z Position
	 EndSite
	 {
	 OFFSET 0 -1 0
	 }
}
ROOT ul
{
	 OFFSET 0 0 0
	 CHANNELS 3 XPosition YPosition Z Position
	 EndSite
	 {
	 OFFSET 0 -1 0
	 }
}
ROOT ll
{
	 OFFSET 0 0 0
	 CHANNELS 3 XPosition YPosition Z Position
	 EndSite
	 {
	 OFFSET 0 -1 0
	 }
}
ROOT tt
{
	 OFFSET 0 0 0
	 CHANNELS 3 XPosition YPosition Z Position
	 EndSite
	 {
	 OFFSET 0 -1 0
	 }
}
ROOT tb
{
	 OFFSET 0 0 0
	 CHANNELS 3 XPosition YPosition Z Position
	 EndSite
	 {
	 OFFSET 0 -1 0
	 }
}
ROOT td
{
	 OFFSET 0 0 0
	 CHANNELS 3 XPosition YPosition Z Position
	 EndSite
	 {
	 OFFSET 0 -1 0
	 }
}
ROOT v
{
	 OFFSET 0 0 0
	 CHANNELS 3 XPosition YPosition Z Position
	 EndSite
	 {
	 OFFSET 0 -1 0
	 }
}
ROOT bn
{
	 OFFSET 0 0 0
	 CHANNELS 3 XPosition YPosition Z Position
	 EndSite
	 {
	 OFFSET 0 -1 0
	 }
}
MOTION
Frames: 29
Frame Time: 0.002
-0.008647551536560058	-3.619529902935028E-4	0		0.35877178955078126	-2.30228173828125	0		-1.1368551025390625	-0.04850493621826172	0		-0.8776837158203125	-2.312222900390625	0		1.2624412841796875	-0.6502583618164063	0		3.042631103515625	0.03180026054382324	0		4.57147265625	0.05781850814819336	0		5.487291015625	-0.009757504463195801	0		-0.11340999603271484	5.93298046875	0		
-0.008672908782958984	0.0044567899703979496	0		0.3907298583984375	-2.306083740234375	0		-1.131979248046875	-0.0488604736328125	0		-0.8824951782226562	-2.304361083984375	0		1.267356689453125	-0.6504558715820312	0		3.04264404296875	0.03881951904296875	0		4.572220703125	0.0519208869934082	0		5.4921640625	-0.009676855087280273	0		-0.10892809295654297	5.93269189453125	0		
-0.0880415267944336	-1.2640899419784547E-4	0		0.3396869506835937	-2.30220654296875	0		-1.12724072265625	-0.04920943832397461	0		-0.8796498413085938	-2.306653076171875	0		1.2690745849609375	-0.653587890625	0		3.047376953125	0.038741825103759765	0		4.576953125	0.051942588806152344	0		5.496900390625	-0.009595376968383789	0		-0.23701454162597657	5.912072265625	0		
0.005513422966003418	-0.0011847909688949584	0		0.38221649169921873	-2.31121240234375	0		-1.1186253662109376	-0.0466273307800293	0		-0.8522374267578126	-2.321433349609375	0		1.2347767333984374	-0.6479920654296875	0		3.061624267578125	0.023470029830932618	0		4.563646484375	0.059324783325195314	0		5.49561572265625	-0.001396340012550354	0		-0.09845958709716797	5.92909765625	0		
-0.06405739593505859	0.004043087005615235	0		0.3570363464355469	-2.293844970703125	0		-1.0943323974609376	-0.049347389221191404	0		-0.8436639404296875	-2.316818603515625	0		1.2841810302734376	-0.6470713500976563	0		3.074615966796875	0.05623523330688476	0		4.58309423828125	0.0650458755493164	0		5.50994775390625	-0.0015177650451660156	0		-0.09448293304443359	5.9288388671875	0		
0.013096335411071778	0.006345902919769287	0		0.4110667114257813	-2.304056640625	0		-1.106117919921875	-0.04332773971557617	0		-0.85234033203125	-2.31184423828125	0		1.2883067626953124	-0.6472337646484375	0		3.060345703125	0.03853810882568359	0		4.57408203125	0.060332683563232424	0		5.5098779296875	-0.009356944084167481	0		-0.09169336700439454	5.9306171875	0		
-0.05920496368408203	6.445069909095764E-4	0		0.3860194396972656	-2.30367333984375	0		-1.1222286376953126	-0.04020578384399414	0		-0.8524717407226563	-2.316025634765625	0		1.2890858154296876	-0.6513202514648437	0		3.0641669921875	0.03848623275756836	0		4.58889990234375	0.06014312362670898	0		5.5037236328125	-0.008078500747680665	0		-0.10240455627441407	5.9196767578125	0		
0.013325733184814453	-9.227839708328247E-4	0		0.41457382202148435	-2.309343994140625	0		-1.1068831787109374	-0.05069215774536133	0		-0.8488125610351562	-2.316262451171875	0		1.2926624755859375	-0.6514507446289063	0		3.0725693359375	0.031345876693725586	0		4.58628369140625	0.05229698181152344	0		5.50726806640625	-0.007999969005584718	0		-0.09915382385253907	5.9194775390625	0		
-0.05730311584472656	0.00537139892578125	0		0.36608416748046874	-2.301468017578125	0		-1.099564697265625	-0.04799308776855469	0		-0.8325721435546874	-2.322728271484375	0		1.2959493408203124	-0.6515638427734375	0		3.076241455078125	0.05230875778198242	0		4.59365673828125	0.058251697540283205	0		5.51052587890625	-0.007923388957977295	0		-0.21437725830078125	5.90964111328125	0		
0.027530403137207032	-0.002397799015045166	0		0.4069794616699219	-2.31035009765625	0		-1.09251611328125	-0.044264183044433594	0		-0.8644047241210937	-2.3172177734375	0		1.3020223388671874	-0.6477188720703125	0		3.078792724609375	0.03128947448730469	0		4.5917822265625	0.06638658905029297	0		5.52347314453125	-0.009046418190002441	0		-0.07921754455566406	5.92987158203125	0		
-0.04859521102905273	0.00803822135925293	0		0.4009026184082031	-2.302281494140625	0		-1.089833251953125	-0.0444251708984375	0		-0.8016329345703125	-2.317554931640625	0		1.3047266845703125	-0.647794677734375	0		3.087748046875	0.04515576934814453	0		4.5951845703125	0.052410831451416014	0		5.52615478515625	-0.008972017288208008	0		-0.07674720001220703	5.92974658203125	0		
0.02771116828918457	0.0024823830127716066	0		0.428271240234375	-2.307857666015625	0		-1.095568359375	-0.051397537231445314	0		-0.837153076171875	-2.316928466796875	0		1.304068603515625	-0.651791015625	0		3.079010498046875	0.038373504638671875	0		4.6037392578125	0.06033799362182617	0		5.538552734375	-0.009092917442321777	0		-0.08874734497070312	5.91892529296875	0		
-0.042227184295654294	-1.7254500091075899E-4	0		0.40148641967773435	-2.3063486328125	0		-1.0934405517578125	-0.05150064468383789	0		-0.8271612548828124	-2.327179931640625	0		1.3062130126953124	-0.6518282470703125	0		3.081135986328125	0.03838508605957031	0		4.5948662109375	0.060607879638671876	0		5.520703125	-0.00762047290802002	0		-0.0858033447265625	5.917830078125	0		
0.024564939498901366	-0.004500521183013916	0		0.3784883728027344	-2.30189892578125	0		-1.0797744140625	-0.061810829162597655	0		-0.8591373901367187	-2.321582763671875	0		1.3080921630859375	-0.651847412109375	0		3.10091650390625	0.034055255889892576	0		4.59953125	0.05061001205444336	0		5.53254541015625	-0.008735585212707519	0		-0.06890669250488281	5.9264814453125	0		
-0.03161430931091309	0.006607571125030518	0		0.42002267456054687	-2.308704345703125	0		-1.0659464111328125	-0.051099403381347656	0		-0.814406982421875	-2.31847412109375	0		1.315854736328125	-0.6449690551757813	0		3.086964111328125	0.05639885330200195	0		4.61143603515625	0.06547491455078125	0		5.52831689453125	-5.363590121269227E-4	0		-0.06741350555419921	5.926451171875	0		
0.04364964294433594	1.472949981689453E-4	0		0.41055715942382814	-2.302491943359375	0		-1.080448486328125	-0.04481373596191406	0		-0.827930419921875	-2.315203369140625	0		1.31418359375	-0.6478970947265625	0		3.0908486328125	0.03138673973083496	0		4.61071337890625	0.06058231735229492	0		5.53553515625	-0.008570071220397948	0		-0.08228931427001954	5.918755859375	0		
-0.04112186431884766	0.004841434001922607	0		0.4345978698730469	-2.309927734375	0		-1.087430419921875	-0.051660793304443356	0		-0.8386279907226563	-2.30897119140625	0		1.31226708984375	-0.6518124389648438	0		3.087139404296875	0.03853105545043945	0		4.6008681640625	0.06086484909057617	0		5.52188720703125	0.0018006609678268433	0		-0.0812111587524414	5.91876318359375	0		
-0.035276611328125	-2.3222899436950683E-4	0		0.4086253662109375	-2.3063720703125	0		-1.0864857177734375	-0.05164619445800781	0		-0.8298619384765625	-2.319109375	0		1.313216796875	-0.6517777709960938	0		3.0929453125	0.03148390769958496	0		4.6018115234375	0.06092696380615235	0		5.5376328125	-0.008421497344970703	0		-0.0803163833618164	5.91878662109375	0		
-0.04165839004516601	-0.007058036804199219	0		0.4182096862792969	-2.31550927734375	0		-1.0857315673828125	-0.05161427307128906	0		-0.8172193603515625	-2.325310546875	0		1.3170509033203126	-0.6477966918945313	0		3.078113525390625	0.05284035110473633	0		4.5957041015625	0.0681152572631836	0		5.53254443359375	-2.496010065078735E-4	0		-0.19681600952148437	5.9081162109375	0		
0.04218961334228516	0.005358410835266113	0		0.39593789672851565	-2.308015625	0		-1.06520458984375	-0.05495901870727539	0		-0.8115357055664062	-2.32036328125	0		1.3176397705078124	-0.6477533569335937	0		3.1025029296875	0.04241317367553711	0		4.6121142578125	0.058842639923095706	0		5.53317333984375	0.0017878990173339844	0		-0.06477363586425781	5.9295908203125	0		
0.04348737716674805	-0.002608254909515381	0		0.4482314758300781	-2.31598388671875	0		-1.0806295166015625	-0.048588550567626954	0		-0.8131534423828125	-2.323266845703125	0		1.318090576171875	-0.6477096557617188	0		3.092234130859375	0.056658958435058596	0		4.5967490234375	0.0681782455444336	0		5.53943115234375	-0.008309524536132812	0		-0.07751579284667968	5.91789990234375	0		
0.04383218383789062	-0.002552978038787842	0		0.38378033447265625	-2.30366064453125	0		-1.08434326171875	-0.05144255065917969	0		-0.8257127075195313	-2.316948974609375	0		1.3153507080078124	-0.6516080932617188	0		3.103302978515625	0.04246946716308594	0		4.61495361328125	0.060834476470947266	0		5.53397314453125	0.0018041720390319824	0		-0.0638764762878418	5.92969921875	0		
0.03204598999023438	-0.0042602109909057615	0		0.43788909912109375	-2.309667236328125	0		-1.08409326171875	-0.051369213104248045	0		-0.8295733642578125	-2.320800048828125	0		1.315592041015625	-0.6515696411132812	0		3.09457568359375	0.043658294677734376	0		4.59734619140625	0.06817675018310547	0		5.5300478515625	-0.007138537883758545	0		-0.0635394515991211	5.9297578125	0		
-0.03271912384033203	7.293999940156937E-5	0		0.40278097534179685	-2.320927734375	0		-1.078030029296875	-0.05640829467773437	0		-0.8155339965820313	-2.325001220703125	0		1.318821533203125	-0.647595947265625	0		3.108560546875	0.03438556671142578	0		4.60235302734375	0.06005279159545898	0		5.54434619140625	-4.5940300822257994E-4	0		-0.19275201416015625	5.90635498046875	0		
0.048382427215576174	5.375019907951355E-4	0		0.4260586242675781	-2.308334716796875	0		-1.0598388671875	-0.050682659149169924	0		-0.84736376953125	-2.317298583984375	0		1.28304931640625	-0.6388619995117187	0		3.101289794921875	0.06752449035644531	0		4.61754736328125	0.06571163177490234	0		5.544423828125	-5.253340005874634E-4	0		-0.061116436004638675	5.9268359375	0		
-0.029591033935546875	0.003126768112182617	0		0.4151124877929688	-2.302074951171875	0		-1.0757271728515625	-0.04428706741333008	0		-0.8233759765625	-2.314695068359375	0		1.3188604736328124	-0.64754638671875	0		3.095575439453125	0.03160692405700684	0		4.6154423828125	0.06069083023071289	0		5.5402587890625	-0.008529509544372559	0		-0.06291608047485352	5.929931640625	0		
-0.0327451286315918	2.396000027656555E-4	0		0.44665176391601563	-2.317661865234375	0		-1.08396044921875	-0.05104618072509766	0		-0.8255741577148438	-2.316580322265625	0		1.3156688232421876	-0.6514703979492188	0		3.0988349609375	0.049511634826660156	0		4.6043505859375	0.06083333969116211	0		5.5401630859375	-0.00862923812866211	0		-0.07608303833007812	5.918244140625	0		
-0.03698480987548828	-0.0026317338943481444	0		0.43756292724609375	-2.30945068359375	0		-1.0841431884765624	-0.05096654891967774	0		-0.7939671020507812	-2.324138671875	0		1.3154686279296874	-0.6514603881835938	0		3.09530029296875	0.031532550811767576	0		4.60417138671875	0.060747802734375	0		5.53000341796875	-0.0075447077751159665	0		-0.06189772415161133	5.92801611328125	0		
-0.01210982322692871	0.003916224956512451	0		0.4211787414550781	-2.312104248046875	0		-1.0744447021484376	-0.05308868789672851	0		-0.8522446899414062	-2.32092578125	0		1.31826904296875	-0.647517578125	0		3.08281640625	0.07073131561279297	0		4.60189501953125	0.05969144058227539	0		5.53388232421875	-7.491589784622192E-4	0		-0.06197765350341797	5.928060546875	0		
